<?xml version="1.0" encoding="iso-8859-1"?>
<!-- Generator: Adobe Illustrator 19.0.0, SVG Export Plug-In . SVG Version: 6.00 Build 0)  -->
<svg version="1.1" id="Capa_1" xmlns="http://www.w3.org/2000/svg" xmlns:xlink="http://www.w3.org/1999/xlink" x="0px" y="0px"
	 viewBox="0 0 512 512" style="enable-background:new 0 0 512 512;" xml:space="preserve">
<circle style="fill:#996443;" cx="85.29" cy="84.22" r="72.44"/>
<path style="fill:#EF999A;" d="M85.292,116.562c-17.835,0-32.345-14.51-32.345-32.345s14.51-32.345,32.345-32.345
	s32.345,14.51,32.345,32.345S103.127,116.562,85.292,116.562z"/>
<circle style="fill:#996443;" cx="426.71" cy="84.22" r="72.44"/>
<path style="fill:#EF999A;" d="M426.708,116.562c17.835,0,32.345-14.51,32.345-32.345s-14.51-32.345-32.345-32.345
	s-32.345,14.51-32.345,32.345S408.873,116.562,426.708,116.562z"/>
<path style="fill:#BE7D54;" d="M256,500.22c186.125,0,248.5-135.96,248.5-230.686S436.52,67.824,369.655,51.108
	S307.247,45.273,256,45.273s-46.789-10.882-113.655,5.835S7.5,174.809,7.5,269.534S69.875,500.22,256,500.22z"/>
<g style="opacity:0.1;">
	<path d="M57.5,269.535c0-94.726,67.98-201.71,134.845-218.427c14.091-3.523,25.006-5.816,33.951-7.248
		c-23.694-2.28-33.611-5.337-83.951,7.248C75.48,67.824,7.5,174.809,7.5,269.535S69.875,500.22,256,500.22
		c8.597,0,16.926-0.294,25-0.857C114.25,487.745,57.5,359.885,57.5,269.535z"/>
</g>
<path style="fill:#FFCC80;" d="M327.056,218.505l-0.87-1.473H185.814l-0.912,1.548c-11.669,20.35-15.487,49.02-15.487,84.116
	c0.623,92.56,30.712,99.885,86.586,99.885s85.963-7.325,86.586-99.885C342.586,267.557,338.759,238.859,327.056,218.505z"/>
<path style="fill:#3D2723;" d="M185.814,217.032c31.249,8.405,41.557,26.399,70.186,26.399s38.937-17.994,70.186-26.399
	c-12.816-21.147-34.595-32.866-70.186-32.866S198.63,195.885,185.814,217.032z"/>
<circle cx="150.31" cy="175.76" r="19.11"/>
<circle cx="361.69" cy="175.76" r="19.11"/>
<path d="M186.914,392.871c17.297,15.894,42.549,17.21,69.086,17.21s51.79-1.316,69.087-17.21
	c16.975-15.598,24.685-43.393,24.999-90.175c0-42.763-5.614-70.745-18.204-90.731c-6.127-9.726-14.583-18.002-24.563-23.729
	c-15.46-8.872-33.724-11.57-51.32-11.57c-11.999,0-24.187,1.27-35.68,4.836c-16.654,5.167-30.885,15.664-40.201,30.463
	c-12.59,19.986-18.204,47.968-18.204,90.781C162.229,349.478,169.938,377.273,186.914,392.871z M256,235.931
	c-14.342,0-23.313-5.055-34.669-11.454c-6.729-3.792-14.129-7.962-23.431-11.439c7.752-9.072,17.967-15.144,31.1-18.428
	c0.035-0.009,0.069-0.018,0.104-0.026c17.571-4.207,36.222-4.207,53.792,0c0.035,0.008,0.069,0.017,0.104,0.026
	c13.133,3.284,23.348,9.355,31.1,18.428c-9.302,3.477-16.702,7.647-23.431,11.439C279.313,230.876,270.342,235.931,256,235.931z
	 M189.453,225.964c9.708,3.247,17.22,7.471,24.514,11.581c10.453,5.891,20.424,11.488,34.532,12.984v25.469
	c0,21.601-17.574,39.175-39.175,39.175c-4.143,0-7.5,3.358-7.5,7.5c0,4.143,3.357,7.5,7.5,7.5c19.857,0,37.242-10.745,46.675-26.72
	c9.433,15.975,26.818,26.72,46.675,26.72c4.143,0,7.5-3.357,7.5-7.5c0-4.142-3.357-7.5-7.5-7.5
	c-21.601,0-39.175-17.574-39.175-39.175v-25.469c14.108-1.497,24.079-7.094,34.532-12.984c7.294-4.11,14.807-8.334,24.514-11.581
	c8.532,17.141,12.539,41.799,12.539,76.681c-0.595,88.322-27.527,92.436-79.086,92.436s-78.491-4.113-79.086-92.385
	C176.914,267.769,180.922,243.105,189.453,225.964z"/>
<path d="M56.232,425.25c49.627,58.53,124.886,82.47,199.768,82.47c74.878,0,150.184-23.993,199.767-82.47
	C491.504,383.103,512,326.346,512,269.535c0-9.143-0.622-18.634-1.848-28.212c-0.526-4.109-4.291-7.013-8.392-6.487
	c-4.108,0.526-7.013,4.283-6.487,8.392c1.146,8.949,1.727,17.8,1.727,26.308c0,53.314-19.199,106.534-52.674,146.014
	C397.588,470.673,326.401,492.72,256,492.72c-70.493,0-141.572-22.029-188.326-77.171C34.199,376.069,15,322.849,15,269.535
	c0-39.527,12.432-83.659,34.39-122.94c0.005-0.009,0.012-0.018,0.017-0.027c22.725-39.586,54.166-78.462,100.548-89.603
	c39.226-9.454,50.557-8.267,68.745-6.343c9.065,0.958,20.348,2.151,37.3,2.151s28.234-1.193,37.3-2.151
	c18.203-1.924,29.535-3.113,68.838,6.366c32.938,7.943,58.752,30.629,79.002,56.908c0.048,0.062,0.102,0.117,0.151,0.177
	c22.163,27.024,37.719,61.277,46.992,94.784c1.104,3.991,5.24,6.332,9.229,5.225c3.992-1.105,6.332-5.238,5.226-9.23
	c-5.697-20.563-13.897-40.924-24.007-59.974c17.585-15.115,27.915-37.331,27.915-60.66c0-44.078-35.859-79.938-79.938-79.938
	c-27.306,0-52.56,13.917-67.219,36.673c-37.038-8.495-49.606-7.168-67.767-5.249c-9.169,0.97-19.562,2.068-35.723,2.068
	s-26.554-1.099-35.723-2.068c-18.16-1.92-30.728-3.246-67.766,5.249C137.852,18.197,112.598,4.28,85.292,4.28
	c-44.078,0-79.938,35.86-79.938,79.938c0,23.323,10.324,45.534,27.901,60.649C11.979,184.927,0,229.395,0,269.535
	C0,326.346,20.496,383.102,56.232,425.25z M447.489,97.819c-0.106-0.128-0.213-0.252-0.319-0.38
	c-4.42-5.313-9.072-10.434-13.962-15.318c-6.528-6.52-13.473-12.638-20.902-18.116c4.169-2.969,9.206-4.633,14.402-4.633
	c13.699,0,24.844,11.146,24.844,24.845C451.553,89.12,450.118,93.822,447.489,97.819z M426.708,19.28
	c35.807,0,64.938,29.131,64.938,64.938c0,17.939-7.521,35.075-20.447,47.272c-0.112-0.188-0.227-0.37-0.34-0.557
	c-1.185-1.968-2.399-3.92-3.628-5.861c-2.717-4.278-5.545-8.483-8.487-12.61c-0.576-0.807-1.156-1.606-1.738-2.402
	c6.126-7.158,9.547-16.254,9.547-25.842c0-21.971-17.874-39.845-39.844-39.845c-10.272,0-20.145,4.045-27.505,11.057
	c-0.156-0.091-0.311-0.176-0.467-0.266c-7.298-4.205-15.017-7.732-23.087-10.17c-0.188-0.057-0.376-0.122-0.564-0.177
	C387.27,28.863,406.283,19.28,426.708,19.28z M60.447,84.217c0-13.7,11.146-24.845,24.845-24.845c5.196,0,10.232,1.664,14.401,4.633
	c-12.165,8.94-24.036,20.332-35.187,33.805C61.88,93.814,60.447,89.116,60.447,84.217z M40.802,131.489
	c-12.927-12.197-20.447-29.333-20.447-47.271c0-35.807,29.131-64.938,64.938-64.938c20.425,0,39.438,9.583,51.623,25.537
	c-0.338,0.1-0.677,0.215-1.015,0.319c-8.088,2.488-15.81,6.031-23.123,10.274c-7.359-7-17.223-11.038-27.485-11.038
	c-21.971,0-39.845,17.875-39.845,39.845c0,9.585,3.42,18.68,9.544,25.837c-0.34,0.466-0.681,0.928-1.019,1.397
	c-4.65,6.459-9.069,13.097-13.117,19.951C40.837,131.432,40.819,131.46,40.802,131.489z"/>
<g>
</g>
<g>
</g>
<g>
</g>
<g>
</g>
<g>
</g>
<g>
</g>
<g>
</g>
<g>
</g>
<g>
</g>
<g>
</g>
<g>
</g>
<g>
</g>
<g>
</g>
<g>
</g>
<g>
</g>
</svg>
