<svg id="Icon" height="512" viewBox="0 0 64 64" width="512" xmlns="http://www.w3.org/2000/svg"><path d="m51.579 18.964a15.437 15.437 0 0 0 -30.257-2.6 3.256 3.256 0 0 0 3.166 4.076h.119a3.344 3.344 0 0 0 3.168-2.487 8.813 8.813 0 0 1 10.107-6.153 8.633 8.633 0 0 1 6.969 6.97 8.8 8.8 0 0 1 -4.023 9.154 9.411 9.411 0 0 0 -4.616 7.953v7.923a3.32 3.32 0 0 0 3.32 3.321 3.321 3.321 0 0 0 3.321-3.321v-4.549a9.114 9.114 0 0 1 3.253-6.995 15.375 15.375 0 0 0 5.473-13.292z" fill="#f37046"/><circle cx="39.389" cy="55.688" fill="#f37046" r="3.312"/><g fill="#ffd54f"><path d="m20.354 35.739a2.178 2.178 0 0 1 0 3.079c-.851.85-4.383 3-5.234 2.154s1.305-4.383 2.155-5.233a2.178 2.178 0 0 1 3.079 0z"/><path d="m27.386 36.979a2.177 2.177 0 0 1 2.893 1.053c.508 1.089 1.324 5.146.234 5.654s-3.672-2.724-4.18-3.814a2.176 2.176 0 0 1 1.053-2.893z"/><path d="m19.114 28.707a2.177 2.177 0 0 1 -2.893 1.053c-1.09-.508-4.323-3.091-3.815-4.181s4.565-.273 5.655.235a2.177 2.177 0 0 1 1.053 2.893z"/></g><path d="m52.577 18.871a16.438 16.438 0 0 0 -32.219-2.771 4.159 4.159 0 0 0 .72 3.649 4.38 4.38 0 0 0 7.658-1.513 7.817 7.817 0 0 1 8.964-5.457 7.645 7.645 0 0 1 6.168 6.168 7.81 7.81 0 0 1 -3.568 8.122 10.389 10.389 0 0 0 -5.089 8.8v7.931a4.32 4.32 0 1 0 8.64 0v-4.55a8.091 8.091 0 0 1 2.9-6.228 16.454 16.454 0 0 0 5.826-14.151zm-7.11 12.617a10.084 10.084 0 0 0 -3.613 7.762v4.55a2.32 2.32 0 1 1 -4.64 0v-7.93a8.4 8.4 0 0 1 4.142-7.1 9.8 9.8 0 0 0 4.481-10.187 9.632 9.632 0 0 0 -7.772-7.771 10.084 10.084 0 0 0 -1.828-.168 9.8 9.8 0 0 0 -9.419 7.021 2.369 2.369 0 0 1 -4.15.867 2.176 2.176 0 0 1 -.38-1.908 14.433 14.433 0 1 1 23.179 14.864z"/><path d="m39.39 51.375a4.312 4.312 0 1 0 4.31 4.312 4.317 4.317 0 0 0 -4.31-4.312zm0 6.624a2.312 2.312 0 1 1 2.31-2.312 2.314 2.314 0 0 1 -2.31 2.313z"/><path d="m16.569 35.032c-.429.428-3.882 4.919-2.154 6.646a1.737 1.737 0 0 0 1.287.486 5.926 5.926 0 0 0 2.478-.735 12.544 12.544 0 0 0 2.882-1.905 3.175 3.175 0 0 0 0-4.492 3.25 3.25 0 0 0 -4.493 0zm3.079 3.078a10.614 10.614 0 0 1 -3.706 2.041 10.633 10.633 0 0 1 2.041-3.705 1.177 1.177 0 1 1 1.665 1.664z"/><path d="m31.186 37.608a3.178 3.178 0 0 0 -4.22-1.536 3.179 3.179 0 0 0 -1.537 4.221 12.625 12.625 0 0 0 2.057 2.778c1.074 1.118 1.989 1.672 2.776 1.672a1.579 1.579 0 0 0 .677-.151c.926-.432 1.271-1.617 1.053-3.624a12.532 12.532 0 0 0 -.806-3.36zm-1.161 5.026a10.612 10.612 0 0 1 -2.784-3.185 1.177 1.177 0 1 1 2.133-.995 10.611 10.611 0 0 1 .651 4.18z"/><path d="m17.14 30.965a3.178 3.178 0 0 0 1.344-6.058c-.549-.256-5.95-1.965-6.982.25-.432.925.066 2.054 1.521 3.452a12.584 12.584 0 0 0 2.777 2.056 3.146 3.146 0 0 0 1.34.3zm-3.68-4.9a10.628 10.628 0 0 1 4.179.65 1.176 1.176 0 0 1 .57 1.565 1.182 1.182 0 0 1 -1.565.568 10.62 10.62 0 0 1 -3.184-2.779z"/></svg>